<?xml version="1.0" encoding="UTF-8" standalone="no"?>
<!DOCTYPE svg PUBLIC "-//W3C//DTD SVG 1.1//EN"
 "http://www.w3.org/Graphics/SVG/1.1/DTD/svg11.dtd">
<!-- Generated by graphviz version 2.42.4 (0)
 -->
<!-- Title: PrecedenceGraph Pages: 1 -->
<svg width="315pt" height="387pt"
 viewBox="0.00 0.00 315.00 387.00" xmlns="http://www.w3.org/2000/svg" xmlns:xlink="http://www.w3.org/1999/xlink">
<g id="graph0" class="graph" transform="scale(1 1) rotate(0) translate(4 383)">
<title>PrecedenceGraph</title>
<polygon fill="white" stroke="transparent" points="-4,4 -4,-383 311,-383 311,4 -4,4"/>
<!-- E1 -->
<g id="node1" class="node">
<title>E1</title>
<ellipse fill="none" stroke="black" cx="153.5" cy="-355.5" rx="23.5" ry="23.5"/>
<text text-anchor="middle" x="153.5" y="-351.8" font-family="Times,serif" font-size="14.00">E1</text>
</g>
<!-- E2 -->
<g id="node2" class="node">
<title>E2</title>
<ellipse fill="none" stroke="black" cx="23.5" cy="-272.5" rx="23.5" ry="23.5"/>
<text text-anchor="middle" x="23.5" y="-268.8" font-family="Times,serif" font-size="14.00">E2</text>
</g>
<!-- E1&#45;&gt;E2 -->
<g id="edge1" class="edge">
<title>E1&#45;&gt;E2</title>
<path fill="none" stroke="black" d="M133.34,-343.05C113.33,-331.56 81.93,-313.15 55.5,-296 53.88,-294.95 52.22,-293.85 50.55,-292.73"/>
<polygon fill="black" stroke="black" points="52.52,-289.83 42.29,-287.06 48.56,-295.61 52.52,-289.83"/>
</g>
<!-- E6 -->
<g id="node6" class="node">
<title>E6</title>
<ellipse fill="none" stroke="black" cx="88.5" cy="-272.5" rx="23.5" ry="23.5"/>
<text text-anchor="middle" x="88.5" y="-268.8" font-family="Times,serif" font-size="14.00">E6</text>
</g>
<!-- E1&#45;&gt;E6 -->
<g id="edge5" class="edge">
<title>E1&#45;&gt;E6</title>
<path fill="none" stroke="black" d="M139.07,-336.52C130.32,-325.62 119.01,-311.52 109.3,-299.42"/>
<polygon fill="black" stroke="black" points="111.87,-297.04 102.89,-291.43 106.41,-301.42 111.87,-297.04"/>
</g>
<!-- E7 -->
<g id="node7" class="node">
<title>E7</title>
<ellipse fill="none" stroke="black" cx="153.5" cy="-272.5" rx="23.5" ry="23.5"/>
<text text-anchor="middle" x="153.5" y="-268.8" font-family="Times,serif" font-size="14.00">E7</text>
</g>
<!-- E1&#45;&gt;E7 -->
<g id="edge6" class="edge">
<title>E1&#45;&gt;E7</title>
<path fill="none" stroke="black" d="M153.5,-331.94C153.5,-324.02 153.5,-314.95 153.5,-306.36"/>
<polygon fill="black" stroke="black" points="157,-306.22 153.5,-296.22 150,-306.22 157,-306.22"/>
</g>
<!-- E9 -->
<g id="node9" class="node">
<title>E9</title>
<ellipse fill="none" stroke="black" cx="218.5" cy="-272.5" rx="23.5" ry="23.5"/>
<text text-anchor="middle" x="218.5" y="-268.8" font-family="Times,serif" font-size="14.00">E9</text>
</g>
<!-- E1&#45;&gt;E9 -->
<g id="edge8" class="edge">
<title>E1&#45;&gt;E9</title>
<path fill="none" stroke="black" d="M167.93,-336.52C176.68,-325.62 187.99,-311.52 197.7,-299.42"/>
<polygon fill="black" stroke="black" points="200.59,-301.42 204.11,-291.43 195.13,-297.04 200.59,-301.42"/>
</g>
<!-- E10 -->
<g id="node10" class="node">
<title>E10</title>
<ellipse fill="none" stroke="black" cx="283.5" cy="-272.5" rx="23.5" ry="23.5"/>
<text text-anchor="middle" x="283.5" y="-268.8" font-family="Times,serif" font-size="14.00">E10</text>
</g>
<!-- E1&#45;&gt;E10 -->
<g id="edge9" class="edge">
<title>E1&#45;&gt;E10</title>
<path fill="none" stroke="black" d="M173.66,-343.05C193.67,-331.56 225.07,-313.15 251.5,-296 253.12,-294.95 254.78,-293.85 256.45,-292.73"/>
<polygon fill="black" stroke="black" points="258.44,-295.61 264.71,-287.06 254.48,-289.83 258.44,-295.61"/>
</g>
<!-- E3 -->
<g id="node3" class="node">
<title>E3</title>
<ellipse fill="none" stroke="black" cx="23.5" cy="-189.5" rx="23.5" ry="23.5"/>
<text text-anchor="middle" x="23.5" y="-185.8" font-family="Times,serif" font-size="14.00">E3</text>
</g>
<!-- E2&#45;&gt;E3 -->
<g id="edge2" class="edge">
<title>E2&#45;&gt;E3</title>
<path fill="none" stroke="black" d="M23.5,-248.94C23.5,-241.02 23.5,-231.95 23.5,-223.36"/>
<polygon fill="black" stroke="black" points="27,-223.22 23.5,-213.22 20,-223.22 27,-223.22"/>
</g>
<!-- E4 -->
<g id="node4" class="node">
<title>E4</title>
<ellipse fill="none" stroke="black" cx="23.5" cy="-106.5" rx="23.5" ry="23.5"/>
<text text-anchor="middle" x="23.5" y="-102.8" font-family="Times,serif" font-size="14.00">E4</text>
</g>
<!-- E3&#45;&gt;E4 -->
<g id="edge3" class="edge">
<title>E3&#45;&gt;E4</title>
<path fill="none" stroke="black" d="M23.5,-165.94C23.5,-158.02 23.5,-148.95 23.5,-140.36"/>
<polygon fill="black" stroke="black" points="27,-140.22 23.5,-130.22 20,-140.22 27,-140.22"/>
</g>
<!-- E5 -->
<g id="node5" class="node">
<title>E5</title>
<ellipse fill="none" stroke="black" cx="23.5" cy="-23.5" rx="23.5" ry="23.5"/>
<text text-anchor="middle" x="23.5" y="-19.8" font-family="Times,serif" font-size="14.00">E5</text>
</g>
<!-- E4&#45;&gt;E5 -->
<g id="edge4" class="edge">
<title>E4&#45;&gt;E5</title>
<path fill="none" stroke="black" d="M23.5,-82.94C23.5,-75.02 23.5,-65.95 23.5,-57.36"/>
<polygon fill="black" stroke="black" points="27,-57.22 23.5,-47.22 20,-57.22 27,-57.22"/>
</g>
<!-- E8 -->
<g id="node8" class="node">
<title>E8</title>
<ellipse fill="none" stroke="black" cx="153.5" cy="-189.5" rx="23.5" ry="23.5"/>
<text text-anchor="middle" x="153.5" y="-185.8" font-family="Times,serif" font-size="14.00">E8</text>
</g>
<!-- E7&#45;&gt;E8 -->
<g id="edge7" class="edge">
<title>E7&#45;&gt;E8</title>
<path fill="none" stroke="black" d="M153.5,-248.94C153.5,-241.02 153.5,-231.95 153.5,-223.36"/>
<polygon fill="black" stroke="black" points="157,-223.22 153.5,-213.22 150,-223.22 157,-223.22"/>
</g>
<!-- E11 -->
<g id="node11" class="node">
<title>E11</title>
<ellipse fill="none" stroke="black" cx="283.5" cy="-189.5" rx="23.5" ry="23.5"/>
<text text-anchor="middle" x="283.5" y="-185.8" font-family="Times,serif" font-size="14.00">E11</text>
</g>
<!-- E10&#45;&gt;E11 -->
<g id="edge10" class="edge">
<title>E10&#45;&gt;E11</title>
<path fill="none" stroke="black" d="M283.5,-248.94C283.5,-241.02 283.5,-231.95 283.5,-223.36"/>
<polygon fill="black" stroke="black" points="287,-223.22 283.5,-213.22 280,-223.22 287,-223.22"/>
</g>
<!-- E12 -->
<g id="node12" class="node">
<title>E12</title>
<ellipse fill="none" stroke="black" cx="283.5" cy="-106.5" rx="23.5" ry="23.5"/>
<text text-anchor="middle" x="283.5" y="-102.8" font-family="Times,serif" font-size="14.00">E12</text>
</g>
<!-- E11&#45;&gt;E12 -->
<g id="edge11" class="edge">
<title>E11&#45;&gt;E12</title>
<path fill="none" stroke="black" d="M283.5,-165.94C283.5,-158.02 283.5,-148.95 283.5,-140.36"/>
<polygon fill="black" stroke="black" points="287,-140.22 283.5,-130.22 280,-140.22 287,-140.22"/>
</g>
</g>
</svg>
